<?xml version="1.0" encoding="utf-8"?><svg viewBox="0 0 31 31" xmlns="http://www.w3.org/2000/svg" xmlns:xlink="http://www.w3.org/1999/xlink"><style>:root>svg{display:none}:root>svg:target{display:block}</style><svg viewBox="0 0 11 7" id="ic-drop-arrow" xmlns="http://www.w3.org/2000/svg"><path d="M5.5 6.27a.768.768 0 0 1-.545-.225l-4.73-4.73a.77.77 0 1 1 1.09-1.09L5.5 4.412 9.685.226a.77.77 0 0 1 1.09 1.09l-4.73 4.729a.768.768 0 0 1-.545.225Z"/></svg><svg viewBox="0 0 28 28" id="ic-fb" xmlns="http://www.w3.org/2000/svg"><g clip-path="url(#ba)"><path d="M24.5 0h-21C1.57 0 0 1.57 0 3.5v21C0 26.43 1.57 28 3.5 28H14v-9.625h-3.5V14H14v-3.5c0-2.9 2.35-5.25 5.25-5.25h3.5v4.375H21c-.966 0-1.75-.091-1.75.875V14h4.375l-1.75 4.375H19.25V28h5.25c1.93 0 3.5-1.57 3.5-3.5v-21C28 1.57 26.43 0 24.5 0Z"/></g><defs><clipPath id="ba"><path fill="#fff" d="M0 0h28v28H0z"/></clipPath></defs></svg><svg viewBox="0 0 29 29" id="ic-inst" xmlns="http://www.w3.org/2000/svg"><g clip-path="url(#ca)"><path d="M21.15 0H7.85C3.521 0 0 3.521 0 7.85v13.3C0 25.48 3.521 29 7.85 29h13.3C25.48 29 29 25.479 29 21.15V7.85C29 3.521 25.479 0 21.15 0ZM14.5 22.43c-4.372 0-7.93-3.558-7.93-7.93s3.558-7.93 7.93-7.93 7.93 3.558 7.93 7.93-3.558 7.93-7.93 7.93Zm8.119-13.99a2.345 2.345 0 0 1-2.343-2.343 2.346 2.346 0 0 1 2.343-2.343 2.346 2.346 0 0 1 2.343 2.343 2.346 2.346 0 0 1-2.343 2.344Z"/><path d="M14.5 8.27a6.236 6.236 0 0 0-6.23 6.23 6.237 6.237 0 0 0 6.23 6.23 6.237 6.237 0 0 0 6.23-6.23 6.236 6.236 0 0 0-6.23-6.23ZM22.619 5.454a.644.644 0 1 0 .002 1.288.644.644 0 0 0-.002-1.288Z"/></g><defs><clipPath id="ca"><path fill="#fff" d="M0 0h29v29H0z"/></clipPath></defs></svg><svg viewBox="0 0 31 31" id="ic-mobile-menu-close" xmlns="http://www.w3.org/2000/svg"><path d="M30.886 3.054 27.892.05 15.87 12.027 3.892.005.886 3l11.979 12.022L.843 27l2.995 3.005 12.021-11.978 11.978 12.022 3.006-2.995-11.979-12.022L30.886 3.054Z"/></svg></svg>