<svg width="211" height="219" viewBox="0 0 211 219" fill="none" xmlns="http://www.w3.org/2000/svg">
  <path d="M210.457 109.017C210.457 87.4556 204.285 66.3782 192.723 48.4504C181.16 30.5228 164.726 16.5497 145.498 8.29846C126.27 0.0472355 105.112 -2.11166 84.6993 2.09478C64.2871 6.30124 45.5371 16.6841 30.8207 31.9305C16.1043 47.1768 6.08224 66.6017 2.02198 87.749C-2.03828 108.896 0.0455937 130.816 8.01009 150.736C15.9746 170.656 29.4619 187.682 46.7666 199.661C64.0715 211.64 84.4163 218.034 105.228 218.034C119.048 218.036 132.732 215.217 145.499 209.739C158.267 204.261 169.868 196.23 179.639 186.107C189.411 175.983 197.162 163.965 202.45 150.738C207.737 137.51 210.458 123.334 210.457 109.017Z" fill="#B7ECB1"/>
  <path d="M45.9398 84.8291H51.6556L34.6927 126.577H33.3918L16.0911 84.8291H21.8785L33.9449 114.023L45.9398 84.8291Z" fill="white"/>
  <path d="M68.3965 109.942V121.615C68.3965 122.549 68.7038 123.016 69.3184 123.016C70.4119 122.805 71.4326 122.3 72.2787 121.552V124.863C71.3762 125.491 70.4195 126.031 69.4207 126.475C68.6984 126.763 67.9311 126.911 67.157 126.91C64.9241 126.91 63.6026 125.998 63.1928 124.173C61.1936 125.875 58.6925 126.819 56.1045 126.847C55.2544 126.872 54.408 126.718 53.6172 126.393C52.8264 126.069 52.1079 125.58 51.5055 124.958C50.9003 124.341 50.4249 123.601 50.1092 122.785C49.7935 121.969 49.6446 121.093 49.6719 120.214C49.6692 118.49 50.3116 116.831 51.4644 115.587C52.8904 114.103 54.6505 113.009 56.5861 112.404L63.2748 110.016V108.562C63.2748 105.273 61.687 103.617 58.5117 103.617C55.6572 103.617 52.8779 105.145 50.1737 108.202V102.206C52.2223 99.7366 55.1451 98.4987 58.942 98.4917C61.4215 98.3771 63.8557 99.2075 65.7845 100.826C66.408 101.389 66.9317 102.061 67.331 102.811C67.7711 103.571 68.07 104.409 68.2119 105.283C68.369 106.838 68.4308 108.401 68.3965 109.963V109.942ZM63.2748 121.01V112.881L59.7717 114.282C58.3903 114.773 57.1087 115.525 55.992 116.5C55.2992 117.246 54.912 118.24 54.912 119.275C54.912 120.31 55.2992 121.305 55.992 122.05C56.3519 122.408 56.7779 122.686 57.2444 122.868C57.7109 123.051 58.2082 123.133 58.7065 123.112C59.5736 123.092 60.4287 122.894 61.2216 122.53C62.0146 122.166 62.7298 121.642 63.3261 120.989" fill="white"/>
  <path d="M82.2384 84.8291H77.0144V126.407H82.2384V84.8291Z" fill="white"/>
  <path d="M122.438 84.8291H127.805V126.396H122.038V94.0508L109.695 110.117H108.63L96.1538 94.0508V126.396H90.4072V84.8291H95.8465L109.183 101.904L122.438 84.8291Z" fill="white"/>
  <path d="M152.338 109.944V121.617C152.338 122.551 152.645 123.018 153.26 123.018C154.354 122.809 155.376 122.304 156.22 121.553V124.865C155.318 125.493 154.361 126.033 153.363 126.478C152.644 126.766 151.88 126.913 151.109 126.913C148.869 126.913 147.548 126 147.145 124.175C145.141 125.876 142.637 126.819 140.046 126.849C139.196 126.874 138.35 126.719 137.559 126.394C136.769 126.07 136.05 125.582 135.447 124.96C134.842 124.343 134.366 123.604 134.051 122.787C133.735 121.971 133.586 121.095 133.614 120.217C133.611 118.492 134.253 116.834 135.406 115.59C136.832 114.105 138.592 113.011 140.528 112.406L147.216 110.018V108.564C147.216 105.275 145.629 103.619 142.453 103.619C139.599 103.619 136.823 105.147 134.126 108.204V102.208C136.174 99.7388 139.093 98.5009 142.884 98.4938C145.368 98.3678 147.81 99.1911 149.747 100.807C151.005 101.978 151.858 103.543 152.174 105.264C152.331 106.819 152.393 108.382 152.359 109.944H152.338ZM147.237 120.991V112.862L143.734 114.263C142.352 114.754 141.071 115.506 139.954 116.481C139.254 117.22 138.858 118.21 138.848 119.245C138.839 120.28 139.217 121.279 139.903 122.031C140.263 122.389 140.689 122.667 141.155 122.849C141.622 123.031 142.119 123.114 142.617 123.092C143.485 123.073 144.34 122.875 145.133 122.511C145.925 122.147 146.641 121.623 147.237 120.97" fill="white"/>
  <path d="M166.439 99.0283V105.31L166.726 104.833C169.253 100.588 171.782 98.4657 174.316 98.4657C176.283 98.4657 178.331 99.4951 180.462 101.554L177.707 106.319C175.893 104.536 174.203 103.644 172.657 103.644C171.786 103.665 170.933 103.902 170.17 104.336C169.407 104.77 168.756 105.388 168.273 106.138C167.024 107.837 166.37 109.925 166.419 112.06V126.407H161.164V99.0283H166.439Z" fill="white"/>
  <path d="M186.84 87.507C187.25 87.5002 187.657 87.5786 188.037 87.737C188.417 87.8957 188.762 88.1311 189.053 88.4303C189.35 88.7193 189.586 89.0699 189.745 89.4591C189.904 89.8483 189.982 90.2678 189.975 90.6905C189.978 91.1124 189.898 91.5307 189.74 91.9197C189.581 92.3084 189.347 92.6592 189.053 92.9507C188.765 93.2556 188.42 93.497 188.04 93.6611C187.66 93.8253 187.252 93.9083 186.84 93.9058C186.442 93.9053 186.047 93.819 185.683 93.653C185.318 93.4867 184.99 93.2442 184.72 92.9401C184.428 92.6489 184.196 92.2994 184.038 91.9129C183.879 91.5261 183.798 91.1105 183.798 90.6905C183.8 90.2757 183.883 89.8655 184.041 89.4844C184.2 89.1034 184.431 88.7591 184.72 88.4724C184.99 88.1687 185.318 87.9262 185.683 87.7599C186.047 87.5938 186.442 87.5075 186.84 87.507ZM184.259 99.0208H189.514V126.4H184.29L184.259 99.0208Z" fill="white"/>
</svg>
