<svg width="41" height="28" viewBox="0 0 41 28" fill="none"
   xmlns="http://www.w3.org/2000/svg">
   <path d="M40.2929 27.7585H0.706927C0.316548 27.7585 0 27.4343 0 27.0344V0.965502C0 0.565601 0.316548 0.241333 0.706927 0.241333H40.293C40.6834 0.241333 40.9999 0.565601 40.9999 0.965502V27.0344C40.9998 27.4343 40.6833 27.7585 40.2929 27.7585Z" fill="#41479B"/>
   <path d="M40.9998 0.965502C40.9998 0.565601 40.6833 0.241333 40.2929 0.241333H37.1302L24.0343 9.0307V0.241333H16.9654V9.0307L3.86952 0.241333H0.706927C0.316548 0.241333 0 0.565601 0 0.965502V2.83835L11.2356 10.3792H0V17.6206H11.2356L0 25.1615V27.0344C0 27.4343 0.316548 27.7585 0.706927 27.7585H3.8696L16.9655 18.9692V27.7585H24.0345V18.9692L37.1304 27.7585H40.2931C40.6835 27.7585 41 27.4343 41 27.0344V25.1615L29.7644 17.6207H40.9998V10.3793H29.7642L40.9998 2.83835V0.965502Z" fill="#F5F5F5"/>
   <path d="M40.9998 11.8275H22.6206V0.241333H18.3792V11.8275H0V16.1723H18.3792V27.7585H22.6206V16.1723H40.9998V11.8275Z" fill="#FF4B55"/>
   <path d="M14.3293 17.6206L0.0195312 27.136C0.0695799 27.4857 0.351053 27.7586 0.706359 27.7586H1.68003L16.926 17.6207H14.3293V17.6206V17.6206Z" fill="#FF4B55"/>
   <path d="M27.7381 17.6206H25.1414L40.3652 27.7435C40.72 27.7048 41.0001 27.408 41.0001 27.0343V26.4389L27.7381 17.6206Z" fill="#FF4B55"/>
   <path d="M0 1.76494L12.9549 10.3793H15.5517L0.41184 0.312012C0.170005 0.427101 0 0.674424 0 0.965551V1.76494Z" fill="#FF4B55"/>
   <path d="M26.6309 10.3793L40.975 0.841019C40.9155 0.502887 40.64 0.241455 40.2927 0.241455H39.28L24.0342 10.3793H26.6309Z" fill="#FF4B55"/>
</svg>
